<svg xmlns="http://www.w3.org/2000/svg" width="396" height="343" viewBox="0 0 396 343" version="1.1">
	<path d="M 173 3.443 C 170.525 4.798, 165.867 6.445, 162.648 7.103 C 159.258 7.797, 155.548 9.351, 153.827 10.799 C 151.281 12.941, 150.903 13.881, 151.179 17.378 L 151.500 21.459 145 22.647 C 130.832 25.235, 114.225 32.993, 102.627 42.440 C 98.460 45.833, 96.091 46.946, 91.197 47.808 C 82.926 49.265, 78.167 51.543, 67.644 59.081 C 44.301 75.803, 19.782 110.461, 9.549 141.201 C 2.666 161.876, -0.534 185.939, 1.024 205.301 C 2.671 225.757, 7.492 251.860, 12.119 265.370 C 18.925 285.240, 26.206 296.388, 41.687 310.642 C 54.100 322.071, 59.685 326.051, 70.134 330.916 C 98.585 344.163, 134.971 346.405, 168.975 337.007 C 190.340 331.102, 195.658 330.574, 224.500 331.494 C 256.229 332.506, 267.934 332.277, 280.867 330.393 C 293.816 328.507, 310.964 324.093, 322.596 319.653 C 336.987 314.159, 362.463 300.635, 373.855 292.442 C 376.544 290.508, 379.945 283.657, 379.978 280.111 C 379.990 278.798, 381.743 274.073, 383.873 269.611 C 388.718 259.463, 391.490 247.658, 393.462 228.778 C 398.510 180.458, 391.414 144.954, 368.526 104 C 362.147 92.585, 356.330 84.546, 346.615 73.720 C 336.906 62.900, 329.526 57.867, 318.051 54.240 C 310.214 51.764, 308.123 51.537, 293 51.519 C 283.925 51.509, 273.800 51.823, 270.500 52.218 L 264.500 52.937 258.529 47.414 C 252.073 41.445, 252.106 40.732, 258.888 39.618 C 262.756 38.983, 269.602 35.268, 268.653 34.320 C 267.767 33.434, 238.630 21.256, 228 17.328 C 222.775 15.398, 215.575 13.522, 212 13.159 C 206.307 12.582, 205.487 12.238, 205.393 10.386 C 205.208 6.737, 204.270 6.072, 201.030 7.295 C 198.487 8.255, 197.745 8.118, 195.784 6.331 C 192.243 3.105, 189.882 2.192, 183.451 1.562 C 178.347 1.062, 176.860 1.330, 173 3.443 M 174.160 10.880 C 173.184 11.498, 175.637 14.060, 183.160 20.278 C 189.047 25.146, 193.885 28.457, 194.394 27.969 C 194.909 27.476, 191.987 23.474, 187.522 18.556 C 179.876 10.134, 177.495 8.766, 174.160 10.880 M 187.516 12.384 C 188.459 13.823, 189.683 15, 190.237 15 C 191.536 15, 188.730 10.743, 187.065 10.188 C 186.243 9.914, 186.400 10.681, 187.516 12.384 M 157.500 15 C 157.160 15.550, 157.359 16, 157.941 16 C 158.523 16, 159 15.550, 159 15 C 159 14.450, 158.802 14, 158.559 14 C 158.316 14, 157.840 14.450, 157.500 15 M 208 18.889 C 208 19.378, 208.867 20.841, 209.926 22.139 C 211.664 24.270, 211.918 24.329, 212.533 22.750 C 213.525 20.201, 212.366 18, 210.031 18 C 208.914 18, 208 18.400, 208 18.889 M 217.299 19.337 C 218.063 21.327, 234.356 45.977, 234.688 45.645 C 234.962 45.372, 229.287 31.662, 225.492 23.430 C 224.516 21.313, 222.952 20.014, 220.458 19.248 C 217.679 18.396, 216.946 18.416, 217.299 19.337 M 165.123 19.737 C 165.787 21.501, 176.731 31, 178.098 31 C 179.809 31, 171.952 22.993, 167.881 20.589 C 166.156 19.570, 164.915 19.187, 165.123 19.737 M 176.500 23 C 180.201 26.790, 183 28.113, 183 26.073 C 183 24.710, 175.790 19, 174.069 19 C 173.174 19, 174.130 20.573, 176.500 23 M 198.500 22 C 200.107 25.108, 202 26.003, 202 23.655 C 202 22.291, 198.922 19, 197.646 19 C 197.262 19, 197.647 20.350, 198.500 22 M 230.219 23.750 C 230.432 24.163, 231.362 26.157, 232.288 28.182 C 233.213 30.207, 234.399 32.129, 234.924 32.453 C 235.448 32.777, 237.303 35.534, 239.046 38.580 C 240.789 41.626, 242.427 43.906, 242.687 43.646 C 242.947 43.386, 242.431 42.062, 241.541 40.703 C 240.651 39.344, 240.010 37.843, 240.116 37.366 C 240.223 36.890, 239.677 34.288, 238.905 31.584 C 237.889 28.030, 236.669 26.161, 234.500 24.838 C 231.370 22.928, 229.560 22.468, 230.219 23.750 M 146.216 26.845 C 145.298 27.428, 147.725 30.556, 154.740 37.830 C 160.134 43.423, 164.890 48, 165.309 48 C 166.885 48, 157.849 33.942, 154.122 30.595 C 152.955 29.547, 152 28.085, 152 27.345 C 152 25.872, 148.260 25.549, 146.216 26.845 M 213 26.942 C 213 28.515, 222.448 44.157, 222.786 43.143 C 223.337 41.490, 215.681 26, 214.313 26 C 213.591 26, 213 26.424, 213 26.942 M 138.500 29 C 138.840 29.550, 139.316 30, 139.559 30 C 139.802 30, 140 29.550, 140 29 C 140 28.450, 139.523 28, 138.941 28 C 138.359 28, 138.160 28.450, 138.500 29 M 132.177 29.687 C 131.192 30.080, 131.428 30.827, 133.101 32.608 C 136.134 35.836, 137.060 35.619, 135.694 32 C 134.522 28.896, 134.384 28.805, 132.177 29.687 M 244.598 32.190 C 246.179 35.248, 246.307 35.300, 247.659 33.452 C 248.894 31.763, 248.854 31.367, 247.343 30.262 C 244.015 27.828, 242.788 28.690, 244.598 32.190 M 204.520 31.938 C 204.138 33.140, 204.653 34.753, 205.876 36.188 C 206.961 37.459, 208.743 39.625, 209.838 41 C 213.028 45.008, 212.993 42.992, 209.754 36.250 C 206.585 29.653, 205.523 28.778, 204.520 31.938 M 251.042 34.078 C 251.714 35.335, 252.748 35.927, 253.658 35.578 C 254.486 35.260, 255.689 34.986, 256.332 34.968 C 258.252 34.916, 253.775 32, 251.774 32 C 250.217 32, 250.103 32.323, 251.042 34.078 M 164.665 34.329 C 166.562 37.636, 173.484 45, 174.695 45 C 176.534 45, 176.277 41.900, 174.228 39.353 C 172.100 36.709, 163.411 32.144, 164.665 34.329 M 193.750 33.679 C 192.787 33.936, 192 34.552, 192 35.048 C 192 36.785, 205.302 54, 206.644 54 C 208.571 54, 208.433 53.559, 203.204 43.009 C 198.652 33.825, 197.491 32.679, 193.750 33.679 M 120.500 35 C 120.160 35.550, 120.359 36, 120.941 36 C 121.523 36, 122 35.550, 122 35 C 122 34.450, 121.802 34, 121.559 34 C 121.316 34, 120.840 34.450, 120.500 35 M 180.568 36.890 C 179.943 37.900, 194.913 55.420, 195.716 54.618 C 196.002 54.331, 194.581 51.037, 192.558 47.298 C 187.848 38.593, 182.425 33.885, 180.568 36.890 M 217.349 45.250 C 219.647 49.788, 222.309 54.613, 223.264 55.973 C 225.279 58.842, 225.570 63.024, 223.750 62.948 C 223.063 62.920, 219.386 58.872, 215.579 53.952 C 211.773 49.033, 208.453 45.213, 208.203 45.464 C 207.532 46.135, 212.873 56.124, 215.358 58.845 C 218.973 62.803, 225.187 65.914, 228.265 65.307 C 229.785 65.007, 231.270 64.371, 231.565 63.895 C 231.859 63.419, 229.702 59.760, 226.772 55.764 C 223.842 51.769, 219.745 45.913, 217.669 42.750 C 215.592 39.587, 213.731 37, 213.532 37 C 213.333 37, 215.051 40.712, 217.349 45.250 M 224.032 37.256 C 223.990 38.243, 232.688 54.930, 234.546 57.427 C 236.287 59.768, 237.912 58.605, 236.258 56.202 C 235.614 55.266, 233.304 51.350, 231.124 47.500 C 226.949 40.127, 224.085 35.990, 224.032 37.256 M 105.640 45.774 C 105.279 46.357, 106.933 47.063, 109.602 47.463 C 113.955 48.116, 116.027 47.694, 114.749 46.416 C 113.631 45.298, 106.255 44.778, 105.640 45.774 M 238 45.299 C 238 46.585, 243.489 55.971, 244.250 55.986 C 245.704 56.014, 244.971 53.826, 242.305 50.183 C 238.724 45.289, 238 44.467, 238 45.299 M 157 46.266 C 157 46.464, 158.379 47.947, 160.064 49.561 C 161.749 51.176, 162.855 51.822, 162.521 50.998 C 161.977 49.654, 157 45.388, 157 46.266 M 248.355 48.279 C 250.087 55.178, 250.884 56.246, 253.763 55.523 C 255.266 55.146, 256.682 54.652, 256.908 54.425 C 257.492 53.842, 254.032 50.163, 250.597 47.715 L 247.694 45.646 248.355 48.279 M 183.102 47.500 C 184.288 50.482, 188.692 55.977, 189.905 55.988 C 190.961 55.997, 190.837 55.441, 189.405 53.750 C 186.089 49.833, 182.690 46.462, 183.102 47.500 M 81.216 55.256 C 72.543 59.734, 60.170 69.147, 52.693 76.957 C 30.244 100.406, 12.411 135.131, 7.481 165 C 6.618 170.225, 5.444 177.200, 4.872 180.500 C 4.055 185.209, 4.522 208.461, 5.504 212 C 5.580 212.275, 5.978 215.650, 6.387 219.500 C 8.485 239.233, 15.424 264.992, 22.676 279.974 C 26.763 288.417, 28.582 290.794, 39.381 301.812 C 51.572 314.249, 60.992 321.988, 68.622 325.833 C 81.010 332.075, 109.030 339, 121.904 339 C 137.170 339, 151.312 336.771, 172 331.105 C 191.022 325.894, 206.834 324.663, 236.500 326.081 C 266.564 327.518, 282.787 326.137, 304 320.332 C 324.849 314.627, 356.411 299.288, 361.789 292.246 C 363.280 290.294, 366.863 286.069, 369.750 282.857 C 375.146 276.855, 375.278 276.591, 375.418 271.500 C 375.478 269.318, 375.942 268.572, 377.121 268.764 C 378.917 269.057, 381.751 263.285, 384.370 254 C 388.140 240.629, 390.628 198.200, 388.709 180 C 387.208 165.770, 385.834 157.832, 383.979 152.674 C 374.179 125.437, 373.787 124.558, 362.318 104.062 C 351.961 85.552, 336.578 68.406, 325.597 63.130 C 314.617 57.855, 310.127 56.756, 297.500 56.256 C 281.294 55.614, 269.374 57.128, 264.480 60.449 C 262.412 61.852, 260.290 63, 259.764 63 C 256.593 63, 248 66.339, 248 67.571 C 248 69.501, 246.070 69.373, 243.768 67.290 C 242.137 65.814, 241.751 65.780, 240.954 67.040 C 240.446 67.843, 240.024 69.926, 240.015 71.668 C 239.991 76.736, 239.103 78, 235.569 78 C 233.502 78, 230.607 76.759, 227.472 74.530 C 223.006 71.355, 222.445 71.193, 220.871 72.617 C 219.291 74.047, 218.852 73.842, 215.459 70.087 C 211.187 65.358, 208.627 64.666, 209.589 68.500 C 210.101 70.538, 209.850 71, 208.231 71 C 207.139 71, 205.685 70.325, 205 69.500 C 203.177 67.303, 202.402 67.613, 200 71.500 C 197.062 76.254, 193.240 76.303, 189.323 71.637 C 187.770 69.787, 185.549 67.779, 184.387 67.175 C 183.225 66.571, 181.708 64.709, 181.016 63.038 C 179.925 60.404, 179.250 60, 175.938 60 C 173.837 60, 171.826 60.472, 171.470 61.049 C 171.036 61.751, 170.424 61.767, 169.618 61.098 C 167.628 59.446, 154.361 62.703, 144.819 67.187 C 140.044 69.431, 135.431 70.996, 134.569 70.665 C 132.616 69.916, 132.541 67.169, 134.416 65.079 C 135.243 64.157, 135.619 62.397, 135.318 60.848 C 134.882 58.597, 133.681 57.787, 127.355 55.480 L 119.907 52.763 111.060 54.381 C 99.028 56.583, 95.338 56.500, 94 54 C 92.450 51.104, 88.509 51.492, 81.216 55.256 M 154 53.845 C 154 56.228, 150.559 56.943, 149.646 54.750 C 149.275 53.859, 148.687 54.044, 147.595 55.397 C 144.551 59.171, 147.959 60.089, 154.349 57.218 L 158.198 55.489 156.099 53.589 C 154.029 51.716, 154 51.720, 154 53.845 M 199 52.755 C 199 53.305, 199.675 54.315, 200.500 55 C 201.337 55.694, 202 55.803, 202 55.245 C 202 54.695, 201.325 53.685, 200.500 53 C 199.663 52.306, 199 52.197, 199 52.755 M 194.986 63.975 C 195.626 65.169, 195.774 66.677, 195.319 67.361 C 194.869 68.039, 195.302 67.717, 196.283 66.646 C 198.350 64.386, 198.079 62.644, 195.584 62.161 C 194.084 61.870, 193.998 62.129, 194.986 63.975 M 232.688 69.646 C 231.383 70.950, 232.006 72, 234.083 72 C 235.247 72, 235.992 71.476, 235.771 70.813 C 235.284 69.351, 233.614 68.719, 232.688 69.646 M 107.500 148.646 C 102.945 149.687, 100.960 151.298, 101.612 153.425 C 102.480 156.256, 102.264 156.206, 106.299 154.520 C 108.929 153.421, 110.601 153.278, 112.478 153.992 C 118.214 156.172, 117.136 160.220, 108.031 170.687 C 103.177 176.268, 101 179.580, 101 181.385 L 101 184 111.500 184 C 121.981 184, 122 183.996, 122 181.546 C 122 179.212, 121.670 179.077, 115.250 178.796 L 108.500 178.500 113.580 173 C 120.788 165.197, 122 163.096, 122 158.414 C 122 155.273, 121.363 153.636, 119.364 151.636 C 117.914 150.186, 116.001 148.994, 115.114 148.986 C 114.226 148.979, 112.600 148.796, 111.500 148.581 C 110.400 148.366, 108.600 148.395, 107.500 148.646 M 227.050 149.788 C 221.984 152.572, 219.667 157.780, 219.667 166.382 C 219.668 178.309, 223.895 184.167, 232.500 184.167 C 241.072 184.167, 245.332 178.301, 245.332 166.500 C 245.332 155.501, 241.505 149.552, 233.669 148.370 C 231.661 148.067, 229.236 148.587, 227.050 149.788 M 276.050 149.788 C 270.984 152.572, 268.667 157.780, 268.667 166.382 C 268.668 178.309, 272.895 184.167, 281.500 184.167 C 290.072 184.167, 294.332 178.301, 294.332 166.500 C 294.332 155.501, 290.505 149.552, 282.669 148.370 C 280.661 148.067, 278.236 148.587, 276.050 149.788 M 146.474 157.476 C 146.085 162.138, 146.031 166.638, 146.352 167.476 C 147.007 169.183, 150.546 169.543, 151.500 168 C 152.639 166.157, 158.845 166.842, 159.965 168.934 C 161.545 171.886, 161.203 175.506, 159.171 177.345 C 157.077 179.240, 151.838 179.519, 148.807 177.897 C 147.224 177.050, 146.547 177.108, 145.888 178.147 C 143.582 181.786, 147.196 184, 155.441 184 C 159.962 184, 161.269 183.551, 163.894 181.099 C 166.567 178.602, 167 177.501, 167 173.205 C 167 169.075, 166.498 167.675, 164.099 165.106 C 161.656 162.491, 160.461 162, 156.538 162 L 151.879 162 152.190 158.250 L 152.500 154.500 159.250 154.204 C 165.670 153.923, 166 153.788, 166 151.454 C 166 149.022, 165.914 149, 156.590 149 L 147.180 149 146.474 157.476 M 230.338 154.071 C 226.484 155.496, 224.708 166.008, 226.982 173.936 C 228.123 177.916, 229.435 178.964, 233.301 178.985 C 235.558 178.997, 236.383 178.327, 237.551 175.532 C 239.387 171.137, 239.419 161.938, 237.612 157.614 C 236.117 154.036, 233.663 152.841, 230.338 154.071 M 279.338 154.071 C 275.484 155.496, 273.708 166.008, 275.982 173.936 C 277.123 177.916, 278.435 178.964, 282.301 178.985 C 284.558 178.997, 285.383 178.327, 286.551 175.532 C 288.387 171.137, 288.419 161.938, 286.612 157.614 C 285.117 154.036, 282.663 152.841, 279.338 154.071 M 190.713 157.621 C 190.321 158.013, 190 159.608, 190 161.167 C 190 163.748, 190.317 164, 193.563 164 C 196.981 164, 197.114 163.867, 196.813 160.750 C 196.559 158.116, 196.019 157.444, 193.963 157.204 C 192.567 157.041, 191.104 157.229, 190.713 157.621 M 190 181 C 190 183.762, 190.278 184, 193.500 184 C 196.722 184, 197 183.762, 197 181 C 197 178.238, 196.722 178, 193.500 178 C 190.278 178, 190 178.238, 190 181 M 138.170 212.158 C 139.167 217.746, 140.212 222.546, 140.492 222.825 C 141.305 223.638, 141.060 221.049, 139.515 212.500 C 138.720 208.100, 138.054 203.938, 138.035 203.250 C 138.016 202.563, 137.630 202, 137.178 202 C 136.726 202, 137.172 206.571, 138.170 212.158 M 178.303 204.101 C 178.629 205.420, 179.395 209.637, 180.003 213.471 C 181.289 221.577, 182.315 223.505, 181.881 217 L 181.581 212.500 185.383 212.805 C 187.860 213.003, 188.958 212.742, 188.534 212.055 C 188.175 211.475, 186.373 211, 184.529 211 C 181.397 211, 181.131 210.736, 180.501 207.005 C 180.130 204.808, 179.350 202.716, 178.767 202.356 C 178.080 201.932, 177.917 202.544, 178.303 204.101 M 226 203.646 C 224.146 204.629, 223.952 204.974, 225.250 204.985 C 226.446 204.995, 227 205.791, 227 207.500 C 227 209.056, 227.567 210, 228.500 210 C 229.325 210, 230 210.450, 230 211 C 230 211.550, 229.213 212.007, 228.250 212.015 C 227.287 212.024, 225.825 212.490, 225 213.052 C 223.918 213.790, 224.544 213.894, 227.250 213.426 C 230.919 212.791, 231 212.845, 231 215.889 C 231 218.040, 230.519 219, 229.441 219 C 228.584 219, 228.148 219.430, 228.473 219.956 C 229.835 222.159, 231.831 219.609, 232.213 215.179 C 232.765 208.777, 232.249 207.122, 229.892 207.738 C 228.179 208.186, 228.070 207.947, 228.940 205.658 C 230.143 202.493, 229.286 201.906, 226 203.646 M 254.160 206.167 C 254.028 209.188, 253.516 210.010, 251.250 210.838 L 248.500 211.842 251.250 211.921 C 253.836 211.995, 254 212.271, 254 216.559 C 254 219.066, 254.396 220.874, 254.879 220.575 C 255.362 220.276, 255.530 218.006, 255.251 215.531 C 254.796 211.495, 254.989 210.932, 257.122 210.079 C 259.435 209.153, 259.441 209.125, 257.313 209.063 C 255.613 209.014, 255.037 208.277, 254.723 205.750 L 254.320 202.500 254.160 206.167 M 217.750 205.080 C 216.454 205.835, 216 207.392, 216 211.081 C 216 216.551, 217.377 217.939, 220.922 216.042 C 224.219 214.277, 223.461 203.842, 220.050 204.030 C 219.748 204.047, 218.713 204.519, 217.750 205.080 M 242.813 204.683 C 243.534 204.972, 244.397 204.936, 244.729 204.604 C 245.061 204.272, 244.471 204.036, 243.417 204.079 C 242.252 204.127, 242.015 204.364, 242.813 204.683 M 165 205.549 C 164.175 205.724, 161.813 206.142, 159.750 206.479 C 157.688 206.815, 156 207.484, 156 207.965 C 156 208.445, 157.598 208.397, 159.552 207.858 C 161.506 207.319, 164.209 207.017, 165.559 207.189 L 168.014 207.500 165.871 211.814 C 164.356 214.863, 163.416 215.816, 162.664 215.064 C 160.078 212.478, 159.923 214.310, 162.500 217 C 165.710 220.351, 167.643 221.002, 165.848 218.128 C 164.903 216.615, 165.071 215.608, 166.725 212.878 C 167.851 211.020, 169.079 208.488, 169.453 207.250 C 170.144 204.970, 169.287 204.642, 165 205.549 M 217.667 206.667 C 216.340 207.994, 217.042 210, 218.833 210 C 221.193 210, 221.998 209.159, 221.324 207.402 C 220.759 205.929, 218.799 205.535, 217.667 206.667 M 198.446 209.442 C 196.258 212.781, 196.901 216.415, 199.750 216.820 C 200.988 216.995, 202 216.992, 202 216.813 C 202 216.634, 202.419 215.027, 202.930 213.243 C 203.442 211.460, 203.478 210, 203.010 210 C 202.542 210, 201.862 211.350, 201.500 213 C 200.652 216.862, 199 216.885, 199 213.035 C 199 209.367, 202.252 207.134, 204.671 209.142 C 205.803 210.082, 206.092 211.687, 205.757 215.177 C 205.241 220.552, 206.579 220.761, 207.573 215.461 C 208.895 208.417, 202.067 203.915, 198.446 209.442 M 241.500 208 C 241.160 208.550, 241.782 209, 242.882 209 C 243.982 209, 245.160 208.550, 245.500 208 C 245.840 207.450, 245.218 207, 244.118 207 C 243.018 207, 241.840 207.450, 241.500 208 M 242 210.906 C 242 211.405, 242.900 211.577, 244 211.290 C 245.100 211.002, 246 210.594, 246 210.383 C 246 210.173, 245.100 210, 244 210 C 242.900 210, 242 210.408, 242 210.906 M 141 211.918 C 141 212.799, 147.028 215.306, 147.650 214.684 C 147.829 214.505, 146.406 213.610, 144.487 212.695 C 142.569 211.781, 141 211.431, 141 211.918 M 217.188 212.739 C 217.675 215.267, 220.638 215.492, 221.277 213.048 C 221.711 211.391, 221.340 211, 219.333 211 C 217.516 211, 216.943 211.465, 217.188 212.739 M 243.500 213 C 241.870 213.701, 241.812 213.872, 243.191 213.930 C 244.121 213.968, 245.160 213.550, 245.500 213 C 246.211 211.850, 246.176 211.850, 243.500 213 M 227.813 215.683 C 228.534 215.972, 229.397 215.936, 229.729 215.604 C 230.061 215.272, 229.471 215.036, 228.417 215.079 C 227.252 215.127, 227.015 215.364, 227.813 215.683 M 242.667 215.667 C 241.637 216.696, 241.878 219.807, 243.044 220.527 C 244.506 221.431, 247 219.130, 247 216.878 C 247 215.041, 244.102 214.231, 242.667 215.667 M 243.459 217.067 C 243.096 217.653, 243.040 218.373, 243.333 218.667 C 244.050 219.383, 246 218.121, 246 216.941 C 246 215.663, 244.274 215.748, 243.459 217.067 M 125.200 233.200 C 123.507 234.893, 123.507 272.107, 125.200 273.800 C 126.936 275.536, 269.064 275.536, 270.800 273.800 C 272.493 272.107, 272.493 234.893, 270.800 233.200 C 269.064 231.464, 126.936 231.464, 125.200 233.200 M 176.200 249.200 C 174.165 251.235, 174.851 252.980, 178.542 255.157 C 182.749 257.639, 182.543 259.560, 178.092 259.347 C 173.842 259.143, 174.571 261.394, 178.892 261.818 C 185.431 262.461, 187.172 256.741, 181.272 254 C 177.178 252.098, 177.035 250, 181 250 C 182.650 250, 184 249.550, 184 249 C 184 247.589, 177.648 247.752, 176.200 249.200 M 187.855 249.857 C 186.622 251.296, 186.401 252.723, 186.946 255.707 C 187.343 257.878, 187.994 260.182, 188.393 260.827 C 189.276 262.255, 193 262.395, 193 261 C 193 260.450, 192.325 260, 191.500 260 C 189.623 260, 189.398 253.411, 191.250 252.659 C 192.140 252.299, 192.183 251.914, 191.400 251.326 C 190.795 250.872, 190.116 249.927, 189.892 249.227 C 189.603 248.323, 189.011 248.506, 187.855 249.857 M 214.217 250.005 C 213.512 251.145, 212.480 251.796, 211.923 251.453 C 211.367 251.109, 210.257 251.372, 209.456 252.036 C 208.431 252.887, 208 252.913, 208 252.122 C 208 251.505, 207.550 251, 207 251 C 206.450 251, 206 253.475, 206 256.500 C 206 259.525, 206.450 262, 207 262 C 207.550 262, 208 260.682, 208 259.071 C 208 255.979, 210.215 253, 212.514 253 C 213.412 253, 213.991 254.466, 214.193 257.250 C 214.448 260.783, 214.880 261.554, 216.750 261.820 C 219.372 262.192, 219.597 261.454, 217.500 259.357 C 216.675 258.532, 216 256.764, 216 255.429 C 216 253.937, 216.578 253, 217.500 253 C 218.325 253, 219 252.550, 219 252 C 219 251.450, 218.358 251, 217.573 251 C 216.789 251, 216.001 250.310, 215.823 249.466 C 215.568 248.253, 215.232 248.366, 214.217 250.005 M 195.500 252 C 195.148 252.570, 196.017 253, 197.524 253 C 200.799 253, 200.361 255.207, 196.926 256.018 C 195.172 256.431, 194.500 257.271, 194.500 259.045 C 194.500 261.252, 194.929 261.509, 198.750 261.592 L 203 261.685 203 257.542 C 203 255.264, 202.460 252.860, 201.800 252.200 C 200.344 250.744, 196.354 250.618, 195.500 252 M 196.667 257.667 C 195.399 258.934, 196.008 260, 198 260 C 199.111 260, 200 259.333, 200 258.500 C 200 256.978, 197.885 256.449, 196.667 257.667" stroke="none" fill="black" fill-rule="evenodd"/>
</svg>